<svg id="Layer_1" data-name="Layer 1" xmlns="http://www.w3.org/2000/svg" viewBox="0 0 522.22 421"><defs><style>.cls-1{fill:#c10f0d;}</style></defs><path class="cls-1" d="M480.9,139.52c-.91.06,26.28-9.29,41.59-22.1A105,105,0,0,0,524,91.73q-.18-2.73-.62-5.43a205.48,205.48,0,0,1-41.52,31.75c-.87.5,23.83-24,29.83-43.34a84.73,84.73,0,0,0,2.89-13.37,150.25,150.25,0,0,0-19.46-27.66c-4.28,18.73-15,41.2-27.12,59.05-.56.82,11-32,8-52s-15-39-15-39,8,83-28,124-107,47-117,81,35,56,35,56c-48-93,56-55,102-67,31.82-8.3,55-32.88,65.31-62.46A212.25,212.25,0,0,1,480.9,139.52Z" transform="translate(-1.99 -1.73)"/><path class="cls-1" d="M499,422.73l-35-52s-7,2-17-4-53-52.94-91-96c-30.1-8.15-58.69-37.56-47-62,0,0-29,7-50-8s-20-40-30-45-16-1-25-6-17-9-17-9,27,21,36,38,28,37,36,43c3.56,2.66,10.87,2.56,17.89,1.63-21,4.83-54.78,13.86-60.89,23.37-9,14-114,36-152,33s-62-13-62-13,0,.09,0,.25c5.28,2.19,14.77,5.93,24.8,9C42,280.68,67.66,285.26,67,285.19,47.14,283.25,20.53,279,5.19,274.41c4.19,5.37,13.84,12.57,36,18.26,3.6.37,7.46.69,11.37.92,15.84.89,41.9-.86,41.24-.76-10.3,1.51-22.54,2.84-34.16,3.67a407.06,407.06,0,0,0,46.08,4.63c15.39-2.55,34.75-7.44,34.2-7.25-7.56,2.56-16.25,5.22-25,7.63,2.31.08,4.65.16,7.06.22,123,3,141-2,159-10s26-12,26-12,60,56,74,59,50,29,57,36a21.08,21.08,0,0,1,6,16Z" transform="translate(-1.99 -1.73)"/></svg>